<svg xmlns="http://www.w3.org/2000/svg" xmlns:xlink="http://www.w3.org/1999/xlink" width="400" height="400" viewBox="0 0 105.833 105.833" xmlns:v="https://vecta.io/nano"><style><![CDATA[.B{stroke:#000}.C{stroke-width:.441}.D{stroke-linejoin:round}.E{fill:#55b0ff}.F{fill:#55ff89}.G{fill:#f5f}.H{font-family:sans-serif}]]></style><g class="B C D G"><use xlink:href="#B"/><use xlink:href="#B" x="4.619" y="-5.334"/><use xlink:href="#B" x="-2.309" y="-6.667"/></g><g class="E B C D"><use xlink:href="#C"/><use xlink:href="#C" x="9.239" y="-10.668"/><use xlink:href="#D"/><use xlink:href="#E"/><use xlink:href="#F"/><use xlink:href="#F" x="9.238" y="-10.668"/></g><use xlink:href="#G" class="B C D F"/><g class="E B C D"><use xlink:href="#H"/><use xlink:href="#H" x="-4.619" y="-13.335"/><use xlink:href="#E" x="13.859" y="2.667"/><use xlink:href="#D" x="13.858" y="2.666"/><use xlink:href="#I"/><use xlink:href="#I" x="-4.62" y="-13.335"/></g><g class="F B C D"><use xlink:href="#J"/><use xlink:href="#K"/></g><g class="G B C D"><use xlink:href="#B" x="32.335"/><use xlink:href="#B" x="36.955" y="-5.334"/><use xlink:href="#B" x="30.026" y="-6.667"/></g><g class="E B C D"><use xlink:href="#C" x="32.335"/><use xlink:href="#C" x="41.574" y="-10.668"/><use xlink:href="#D" x="32.335" y="-0.001"/><use xlink:href="#E" x="32.335"/><use xlink:href="#F" x="32.335"/><use xlink:href="#F" x="41.573" y="-10.668"/></g><use xlink:href="#G" x="32.335" class="B C D F"/><g class="E B C D"><use xlink:href="#H" x="27.716" y="-13.335"/><use xlink:href="#D" x="46.193" y="2.666"/><use xlink:href="#I" x="27.715" y="-13.335"/></g><g class="F B C D"><use xlink:href="#J" x="32.335"/><use xlink:href="#K" x="32.335"/></g><g class="G B C D"><use xlink:href="#B" x="-32.335" y="0.001"/><use xlink:href="#B" x="-27.716" y="-5.333"/><use xlink:href="#B" x="-34.645" y="-6.667"/></g><g class="E B C D"><use xlink:href="#C" x="-32.335"/><use xlink:href="#C" x="-23.096" y="-10.668"/><use xlink:href="#D" x="-32.335"/><use xlink:href="#E" x="-32.335"/><use xlink:href="#F" x="-32.335"/><use xlink:href="#F" x="-23.097" y="-10.668"/></g><use xlink:href="#G" x="-32.335" y="0.001" class="B C D F"/><g class="E B C D"><use xlink:href="#H" x="-32.335"/><use xlink:href="#H" x="-36.955" y="-13.335"/><use xlink:href="#E" x="-18.477" y="2.668"/><use xlink:href="#D" x="-18.477" y="2.666"/><use xlink:href="#I" x="-32.335"/><use xlink:href="#I" x="-36.955" y="-13.335"/></g><g class="F B C D"><use xlink:href="#J" x="-32.335"/><use xlink:href="#K" x="-32.335"/></g><g class="E B C D"><use xlink:href="#C" x="-55.432" y="-10.668"/><use xlink:href="#E" x="-64.67"/><use xlink:href="#F" x="-55.432" y="-10.668"/></g><use xlink:href="#G" x="-64.67" y="0.001" class="B C D F"/><g class="E B C D"><use xlink:href="#H" x="-64.67"/><use xlink:href="#H" x="-69.29" y="-13.335"/><use xlink:href="#E" x="-50.812" y="2.668"/><use xlink:href="#D" x="-50.812" y="2.667"/><use xlink:href="#I" x="-64.671"/><use xlink:href="#I" x="-69.29" y="-13.334"/></g><g class="F B C D"><use xlink:href="#J" x="-64.67" y="0.001"/><use xlink:href="#K" x="-64.67"/></g><g class="G B C D"><use xlink:href="#B" x="16.168" y="28.003"/><use xlink:href="#B" x="20.787" y="22.669"/><use xlink:href="#B" x="13.858" y="21.335"/></g><g class="E B C D"><use xlink:href="#C" x="16.168" y="28.002"/><use xlink:href="#C" x="25.406" y="17.334"/><use xlink:href="#D" x="16.167" y="28.002"/><use xlink:href="#E" x="16.168" y="28.002"/><use xlink:href="#F" x="16.167" y="28.002"/><use xlink:href="#F" x="25.406" y="17.334"/></g><use xlink:href="#G" x="16.168" y="28.003" class="B C D F"/><g class="E B C D"><use xlink:href="#H" x="16.167" y="28.002"/><use xlink:href="#H" x="11.548" y="14.667"/><use xlink:href="#E" x="30.026" y="30.67"/><use xlink:href="#D" x="30.025" y="30.669"/><use xlink:href="#I" x="16.167" y="28.002"/><use xlink:href="#I" x="11.548" y="14.668"/></g><g class="F B C D"><use xlink:href="#J" x="16.167" y="28.003"/><use xlink:href="#K" x="16.168" y="28.002"/></g><g class="G B C D"><use xlink:href="#B" x="48.503" y="28.003"/><use xlink:href="#B" x="53.122" y="22.669"/><use xlink:href="#B" x="46.193" y="21.335"/></g><g class="E B C D"><use xlink:href="#C" x="48.503" y="28.002"/><use xlink:href="#D" x="48.502" y="28.002"/><use xlink:href="#F" x="48.502" y="28.002"/></g><g class="G B C D"><use xlink:href="#B" x="-16.167" y="28.003"/><use xlink:href="#B" x="-11.548" y="22.669"/><path d="M36.749 62.251L32.9 63.584l-3.08-2.667.77-4.001 3.849-1.333 3.08 2.667z"/></g><g class="E B C D"><use xlink:href="#C" x="-16.167" y="28.002"/><use xlink:href="#C" x="-6.929" y="17.335"/><use xlink:href="#D" x="-16.168" y="28.002"/><use xlink:href="#E" x="-16.167" y="28.003"/><use xlink:href="#F" x="-16.168" y="28.002"/><use xlink:href="#F" x="-6.929" y="17.335"/></g><use xlink:href="#G" x="-16.168" y="28.003" class="B C D F"/><g class="E B C D"><use xlink:href="#H" x="-16.168" y="28.002"/><use xlink:href="#H" x="-20.787" y="14.667"/><use xlink:href="#E" x="-2.309" y="30.67"/><use xlink:href="#D" x="-2.31" y="30.669"/><use xlink:href="#I" x="-16.168" y="28.003"/><use xlink:href="#I" x="-20.787" y="14.668"/></g><g class="F B C D"><use xlink:href="#J" x="-16.168" y="28.003"/><use xlink:href="#K" x="-16.167" y="28.002"/></g><g class="G B C D"><use xlink:href="#B" x="-48.502" y="28.003"/><use xlink:href="#B" x="-43.883" y="22.669"/><path d="M4.414 62.251L.564 63.584l-3.08-2.667.77-4.001 3.849-1.333 3.08 2.667z"/></g><g class="E B C D"><use xlink:href="#C" x="-48.503" y="28.003"/><use xlink:href="#C" x="-39.264" y="17.335"/><use xlink:href="#D" x="-48.503" y="28.002"/><use xlink:href="#E" x="-48.502" y="28.003"/><use xlink:href="#F" x="-48.503" y="28.003"/><use xlink:href="#F" x="-39.264" y="17.335"/></g><use xlink:href="#G" x="-48.503" y="28.003" class="B C D F"/><g class="E B C D"><use xlink:href="#H" x="-48.503" y="28.002"/><use xlink:href="#H" x="-53.122" y="14.668"/><use xlink:href="#E" x="-34.644" y="30.67"/><use xlink:href="#D" x="-34.645" y="30.669"/><use xlink:href="#I" x="-48.503" y="28.003"/><use xlink:href="#I" x="-53.122" y="14.668"/></g><g class="F B C D"><use xlink:href="#J" x="-48.503" y="28.003"/><use xlink:href="#K" x="-48.502" y="28.003"/></g><g class="G B C D"><use xlink:href="#B" y="56.005"/><use xlink:href="#B" x="4.619" y="50.671"/><use xlink:href="#B" x="-2.31" y="49.338"/></g><g class="E B C D"><use xlink:href="#C" y="56.005"/><use xlink:href="#C" x="9.239" y="45.337"/><use xlink:href="#D" y="56.005"/><use xlink:href="#E" y="56.005"/><use xlink:href="#F" y="56.005"/><use xlink:href="#F" x="9.238" y="45.337"/></g><use xlink:href="#G" y="56.005" class="B C D F"/><g class="E B C D"><use xlink:href="#H" y="56.005"/><use xlink:href="#H" x="-4.62" y="42.67"/><use xlink:href="#E" x="13.858" y="58.672"/><use xlink:href="#D" x="13.858" y="58.671"/><use xlink:href="#I" y="56.005"/><use xlink:href="#I" x="-4.62" y="42.67"/></g><g class="F B C D"><use xlink:href="#J" y="56.005"/><use xlink:href="#K" y="56.005"/></g><g class="G B C D"><use xlink:href="#B" x="32.335" y="56.005"/><use xlink:href="#B" x="36.954" y="50.671"/><use xlink:href="#B" x="30.026" y="49.338"/></g><g class="E B C D"><use xlink:href="#C" x="32.335" y="56.005"/><use xlink:href="#C" x="41.574" y="45.337"/><use xlink:href="#D" x="32.335" y="56.004"/><use xlink:href="#E" x="32.335" y="56.005"/><use xlink:href="#F" x="32.335" y="56.005"/><use xlink:href="#F" x="41.573" y="45.337"/></g><use xlink:href="#G" x="32.335" y="56.005" class="B C D F"/><g class="E B C D"><use xlink:href="#H" x="27.716" y="42.67"/><use xlink:href="#D" x="46.193" y="58.671"/><use xlink:href="#I" x="27.715" y="42.67"/></g><g class="F B C D"><use xlink:href="#J" x="32.335" y="56.005"/><use xlink:href="#K" x="32.335" y="56.005"/></g><g class="G B C D"><use xlink:href="#B" x="-32.335" y="56.006"/><use xlink:href="#B" x="-27.716" y="50.672"/><use xlink:href="#B" x="-34.645" y="49.338"/></g><g class="E B C D"><use xlink:href="#C" x="-32.335" y="56.005"/><use xlink:href="#C" x="-23.097" y="45.337"/><use xlink:href="#D" x="-32.335" y="56.005"/><use xlink:href="#E" x="-32.335" y="56.005"/><use xlink:href="#F" x="-32.335" y="56.005"/><use xlink:href="#F" x="-23.097" y="45.337"/></g><use xlink:href="#G" x="-32.335" y="56.005" class="B C D F"/><g class="E B C D"><use xlink:href="#H" x="-32.335" y="56.005"/><use xlink:href="#H" x="-36.955" y="42.67"/><use xlink:href="#E" x="-18.477" y="58.673"/><use xlink:href="#D" x="-18.477" y="58.671"/><use xlink:href="#I" x="-32.336" y="56.005"/><use xlink:href="#I" x="-36.955" y="42.67"/></g><g class="F B C D"><use xlink:href="#J" x="-32.335" y="56.005"/><use xlink:href="#K" x="-32.335" y="56.005"/></g><g class="E B C D"><use xlink:href="#C" x="-55.432" y="45.337"/><use xlink:href="#E" x="-64.67" y="56.005"/><use xlink:href="#F" x="-55.432" y="45.337"/></g><use xlink:href="#G" x="-64.67" y="56.006" class="B C D F"/><g class="E B C D"><use xlink:href="#H" x="-64.67" y="56.005"/><use xlink:href="#H" x="-69.29" y="42.67"/><use xlink:href="#E" x="-50.812" y="58.673"/><use xlink:href="#D" x="-50.812" y="58.672"/><use xlink:href="#I" x="-64.671" y="56.005"/><use xlink:href="#I" x="-69.29" y="42.671"/></g><g class="F B C D"><use xlink:href="#J" x="-64.67" y="56.006"/><use xlink:href="#K" x="-64.67" y="56.005"/></g><g class="G B C D"><use xlink:href="#B" x="16.168" y="-28.003"/><path d="M76.013 7.578l-3.849 1.333-3.08-2.667.77-4.001L73.703.911l3.08 2.667z"/><use xlink:href="#B" x="13.858" y="-34.67"/></g><g class="E B C D"><use xlink:href="#C" x="16.167" y="-28.003"/><use xlink:href="#C" x="25.406" y="-38.671"/><use xlink:href="#D" x="16.167" y="-28.003"/><use xlink:href="#E" x="16.168" y="-28.003"/><use xlink:href="#F" x="16.167" y="-28.003"/><use xlink:href="#F" x="25.406" y="-38.671"/></g><use xlink:href="#G" x="16.167" y="-28.003" class="B C D F"/><g class="E B C D"><use xlink:href="#H" x="16.167" y="-28.003"/><use xlink:href="#H" x="11.548" y="-41.338"/><use xlink:href="#E" x="30.026" y="-25.336"/><use xlink:href="#D" x="30.025" y="-25.337"/><use xlink:href="#I" x="16.167" y="-28.003"/><use xlink:href="#I" x="11.548" y="-41.338"/></g><g class="F B C D"><use xlink:href="#J" x="16.167" y="-28.003"/><use xlink:href="#K" x="16.168" y="-28.003"/></g><g class="G B C D"><use xlink:href="#B" x="48.503" y="-28.003"/><use xlink:href="#B" x="53.122" y="-33.337"/><path d="M101.419 6.245L97.57 7.578l-3.08-2.667.77-4.001 3.849-1.333 3.08 2.667z"/></g><g class="E B C D"><use xlink:href="#C" x="48.503" y="-28.003"/><use xlink:href="#D" x="48.502" y="-28.004"/><use xlink:href="#F" x="48.502" y="-28.003"/></g><g class="G B C D"><use xlink:href="#B" x="-16.168" y="-28.002"/><path d="M43.678 7.579l-3.849 1.333-3.08-2.667.77-4.001L41.368.911l3.08 2.667z"/><use xlink:href="#B" x="-18.477" y="-34.67"/></g><g class="E B C D"><use xlink:href="#C" x="-16.168" y="-28.003"/><use xlink:href="#C" x="-6.929" y="-38.671"/><use xlink:href="#D" x="-16.168" y="-28.003"/><use xlink:href="#E" x="-16.167" y="-28.003"/><use xlink:href="#F" x="-16.168" y="-28.003"/><use xlink:href="#F" x="-6.929" y="-38.671"/></g><use xlink:href="#G" x="-16.168" y="-28.002" class="B C D F"/><g class="E B C D"><use xlink:href="#H" x="-16.168" y="-28.003"/><use xlink:href="#H" x="-20.787" y="-41.338"/><use xlink:href="#E" x="-2.309" y="-25.335"/><use xlink:href="#D" x="-2.31" y="-25.337"/><use xlink:href="#I" x="-16.168" y="-28.003"/><use xlink:href="#I" x="-20.788" y="-41.338"/></g><g class="F B C D"><use xlink:href="#J" x="-16.168" y="-28.003"/><use xlink:href="#K" x="-16.167" y="-28.003"/></g><g class="G B C D"><use xlink:href="#B" x="-48.503" y="-28.002"/><path d="M11.343 7.579L7.493 8.912l-3.08-2.667.77-4.001L9.033.912l3.08 2.667z"/><path d="M4.414 6.245L.564 7.579l-3.08-2.667.77-4.001L2.104-.422l3.08 2.667z"/></g><g class="E B C D"><use xlink:href="#C" x="-48.503" y="-28.003"/><use xlink:href="#C" x="-39.264" y="-38.671"/><use xlink:href="#D" x="-48.503" y="-28.003"/><use xlink:href="#E" x="-48.503" y="-28.003"/><use xlink:href="#F" x="-48.503" y="-28.003"/><use xlink:href="#F" x="-39.264" y="-38.671"/></g><use xlink:href="#G" x="-48.503" y="-28.002" class="B C D F"/><g class="E B C D"><use xlink:href="#H" x="-48.503" y="-28.003"/><use xlink:href="#H" x="-53.122" y="-41.338"/><use xlink:href="#E" x="-34.644" y="-25.335"/><use xlink:href="#D" x="-34.645" y="-25.336"/><use xlink:href="#I" x="-48.503" y="-28.003"/><use xlink:href="#I" x="-53.123" y="-41.337"/></g><g class="F B C D"><use xlink:href="#J" x="-48.503" y="-28.002"/><use xlink:href="#K" x="-48.502" y="-28.003"/></g><g class="E B C D"><path d="M66.774-.423L62.924.911l-3.08-2.667 1.54-8.001 6.159 5.334z"/><use xlink:href="#E" x="13.858" y="-53.338"/><path d="M66.775-.423l3.08 2.667L73.703.911l1.54-8.001-7.699 2.667zm32.334 0L95.26.91l-3.08-2.667 1.54-8.001 6.159 5.334z"/><use xlink:href="#D" x="46.193" y="-53.34"/><path d="M34.439-.423L30.589.911l-3.08-2.667 1.54-8.001 6.159 5.334z"/><use xlink:href="#E" x="-18.477" y="-53.338"/><path d="M34.439-.422l3.08 2.667L41.368.911l1.54-8.001-7.699 2.667zm-32.335 0L-1.746.911l-3.08-2.667 1.54-8.001 6.159 5.334zm13.858 2.667l-3.849 1.333L9.033.912l1.54-8.001 6.159 5.334z"/><path d="M2.104-.422l3.08 2.667L9.033.911l1.54-8.001-7.699 2.667z"/><use xlink:href="#H" x="-80.838" y="-28.002"/><use xlink:href="#I" x="-80.838" y="-28.002"/><use xlink:href="#H" x="-80.838" y="28.003"/><use xlink:href="#I" x="-80.838" y="28.003"/></g><text xml:space="preserve" transform="scale(.26458333)" style="white-space:pre" font-size="453.333" fill="#000" class="H"><tspan x="19.25" y="583.248"><tspan font-size="5.333">c</tspan></tspan></text><defs ><path id="B" d="M55.226 40.915l-3.849 1.333-3.08-2.667.77-4.001 3.849-1.333 3.08 2.667z"/><path id="C" d="M55.996 36.915l3.849-1.333 3.08 2.667-1.54 8.001-6.159-5.334z"/><path id="D" d="M52.917 52.917l3.08 2.667 3.849-1.333 1.54-8.001-7.699 2.667z"/><path id="E" d="M66.774 55.583l-3.849 1.333-3.08-2.667 1.54-8.001 6.159 5.334z"/><path id="F" d="M51.377 42.249l3.849-1.333 6.159 5.334-7.699 2.667-3.08-2.667z"/><path id="G" d="M62.925 38.248l-1.54 8.001 7.698-2.667 1.54-8z"/><path id="H" d="M83.712 42.249l-3.08-2.667-3.849 1.333-1.54 8.001 7.699-2.667z"/><path id="I" d="M86.022 48.916l-3.08-2.667-7.699 2.667 6.159 5.334 3.849-1.333z"/><path id="J" d="M76.783 40.915l-1.54 8.001-6.159-5.334 1.54-8z"/><path id="K" d="M61.385 46.249l6.159 5.334 7.699-2.667-6.159-5.334z"/></defs></svg>